# xmcd CD database file
#
# Track frame offsets:
#	150
#	11836
#	23353
#	35648
#	47338
#	59595
#	73881
#	86488
#	99643
#	111445
#	123121
#	134808
#	145085
#	155935
#	170880
#	182458
#	193349
#	205999
#	218398
#	230066
#	244035
#	258120
#	269800
#	283358
#
# Disc length: 3931 seconds
#
# Revision: 7
# Processed by: cddbd v1.5.2PL0 Copyright (c) Steve Scherf et al.
# Submitted via: CDex 1.51
#
DISCID=770f5918
DTITLE=Muddy Waters - Rollin' And Tumblin'
DYEAR=1900
DGENRE=Blues
TTITLE0=Gypsy Woman
TTITLE1=Little Anna Mae
TTITLE2=Good Lookin' Woman
TTITLE3=Mean Disposition
TTITLE4=I Can't Be Satisfied
TTITLE5=I Feel Like Going Home
TTITLE6=Train Fare Home Blues
TTITLE7=Down South Blues
TTITLE8=Kind Hearted Woman
TTITLE9=Sittin' Here And Drinkin' (Whiskey Blues)
TTITLE10=You're Gonna Miss Me
TTITLE11=Mean Red Spider
TTITLE12=Stand Here Tremblin'
TTITLE13=Streamline Woman
TTITLE14=Hard Days
TTITLE15=Muddy Jumps One
TTITLE16=Little Geneva
TTITLE17=Canary Bird
TTITLE18=Burying Ground
TTITLE19=Screamin' And Cryin'
TTITLE20=Where's My Woman Been
TTITLE21=Last Time I Fool Around With You
TTITLE22=Rollin' And Tumblin' (Part 1)
TTITLE23=Rollin' And Tumblin' (Part 2)
EXTD=
EXTT0=
EXTT1=
EXTT2=
EXTT3=
EXTT4=
EXTT5=
EXTT6=
EXTT7=
EXTT8=
EXTT9=
EXTT10=
EXTT11=
EXTT12=
EXTT13=
EXTT14=
EXTT15=
EXTT16=
EXTT17=
EXTT18=
EXTT19=
EXTT20=
EXTT21=
EXTT22=
EXTT23=
PLAYORDER=
